# Blender 3.4.1
# www.blender.org
mtllib prism.mtl
o Cylinder
v 0.000000 0.000000 -0.500000
v 0.000000 1.000000 -0.500000
v 0.433013 0.000000 0.250000
v 0.433013 1.000000 0.250000
v -0.433013 0.000000 0.250000
v -0.433013 1.000000 0.250000
vn 0.8660 -0.0000 -0.5000
vn -0.0000 -0.0000 1.0000
vn -0.0000 1.0000 -0.0000
vn -0.8660 -0.0000 -0.5000
vn -0.0000 -1.0000 -0.0000
vt 1.000000 0.500000
vt -0.000000 0.500000
vt 0.750000 0.490000
vt 1.000000 1.000000
vt 0.250000 0.490000
vt -0.000000 1.000000
vt 0.666667 0.500000
vt 0.957846 0.130000
vt 0.666667 1.000000
vt 0.457846 0.130000
vt 0.333333 0.500000
vt 0.542154 0.130000
vt 0.042154 0.130000
vt 0.333333 1.000000
s 0
f 1/1/1 2/4/1 4/9/1 3/7/1
f 3/7/2 4/9/2 6/14/2 5/11/2
f 4/10/3 2/5/3 6/13/3
f 5/11/4 6/14/4 2/6/4 1/2/4
f 1/3/5 3/8/5 5/12/5
